<svg width="182" height="70" viewBox="0 0 182 70" fill="none" xmlns="http://www.w3.org/2000/svg">
<g clip-path="url(#clip0_1_1842)">
<path fill-rule="evenodd" clip-rule="evenodd" d="M33.5 69.6098C52.0015 69.6098 67 54.2455 67 35.2927C67 16.3399 52.0015 0.975616 33.5 0.975616C14.9985 0.975616 0 16.3399 0 35.2927C0 54.2455 14.9985 69.6098 33.5 69.6098Z" fill="#E2E6FF"/>
<path fill-rule="evenodd" clip-rule="evenodd" d="M33.493 0.975613C32.154 0.975613 31.0685 2.08897 31.0685 3.46236C31.0685 4.83575 32.154 5.9491 33.493 5.9491C49.2297 5.9491 62.0098 18.9846 62.1024 35.1159C62.1103 36.4893 63.2022 37.5961 64.5412 37.588C65.8803 37.5799 66.9594 36.46 66.9515 35.0867C66.8432 16.2204 51.897 0.975613 33.493 0.975613Z" fill="url(#paint0_linear_1_1842)"/>
<g filter="url(#filter0_d_1_1842)">
<circle cx="34" cy="33.9756" r="17" fill="#FAFBFF"/>
</g>
<path fill-rule="evenodd" clip-rule="evenodd" d="M45.5457 26.9936C45.5782 26.8431 45.4357 26.7139 45.2891 26.7609L41.8258 27.8726C41.6792 27.9197 41.6385 28.1078 41.7526 28.2112L44.447 30.6546C44.561 30.758 44.7443 30.6992 44.7768 30.5487L45.5457 26.9936ZM30.4631 41.1417C31.2756 40.7596 31.5667 39.8948 31.7058 39.1856C31.8266 38.5698 31.8728 37.8367 31.9168 37.1399C31.9259 36.9953 31.9349 36.8523 31.9445 36.7123C32.003 35.8552 32.0825 35.0724 32.2832 34.4394C32.4806 33.8167 32.7604 33.4475 33.15 33.2643C33.5559 33.0734 34.0023 33.0898 34.5621 33.3022C35.1412 33.5219 35.7486 33.9163 36.4213 34.3737L36.6022 34.4971C37.1927 34.9003 37.8398 35.3421 38.4706 35.6268C39.1746 35.9445 40.0209 36.1427 40.859 35.7486C41.9976 35.2132 42.4047 34.2454 42.675 33.5439C42.6976 33.4851 42.719 33.4292 42.7394 33.3758C42.85 33.0859 42.9324 32.8699 43.0402 32.6807C43.154 32.4812 43.2626 32.3768 43.3961 32.314C43.7709 32.1378 43.9319 31.691 43.7556 31.3162C43.5794 30.9413 43.1326 30.7804 42.7578 30.9566C42.2614 31.19 41.9509 31.5629 41.7372 31.9377C41.5665 32.237 41.4366 32.5797 41.3286 32.8647L41.3279 32.8665C41.3098 32.9143 41.2923 32.9605 41.2753 33.0045C41.0182 33.6718 40.7866 34.1251 40.2208 34.3912C39.9649 34.5115 39.6267 34.5029 39.0877 34.2596C38.5841 34.0323 38.0479 33.667 37.4277 33.2443L37.4277 33.2443L37.2649 33.1334C36.6098 32.6879 35.8632 32.1916 35.0943 31.8998C34.3059 31.6006 33.4101 31.4844 32.5118 31.9068C31.5972 32.3369 31.118 33.1513 30.8533 33.986C30.592 34.8104 30.5061 35.7588 30.448 36.6101C30.4369 36.7717 30.4269 36.9293 30.4171 37.0827V37.0827C30.3728 37.7774 30.3339 38.3869 30.2338 38.8968C30.105 39.5538 29.9282 39.7356 29.8248 39.7843C29.4602 39.9557 29.201 39.9943 28.9977 39.9907C28.7784 39.9868 28.5801 39.9351 28.2887 39.8529L28.2579 39.8441L28.2579 39.8441C27.9878 39.7677 27.6281 39.666 27.2114 39.6556C26.7603 39.6444 26.2798 39.7383 25.7355 39.9942C24.5548 40.5494 23.9476 41.7513 23.6356 42.648C23.4727 43.1161 23.3729 43.5514 23.3136 43.8687C23.2838 44.0281 23.2638 44.1598 23.2511 44.2534C23.2448 44.3003 23.2402 44.3378 23.2371 44.3647L23.2336 44.3969L23.2326 44.4067L23.2323 44.4101L23.2321 44.4113L23.2321 44.4118C23.2321 44.4121 23.2321 44.4123 23.9409 44.4797L23.2321 44.4123C23.1928 44.8246 23.4953 45.1907 23.9077 45.2299C24.3199 45.2691 24.6859 44.9668 24.7253 44.5546L24.7253 44.5543L24.7255 44.5526L24.7275 44.5348C24.7294 44.5178 24.7327 44.4907 24.7375 44.4549C24.7473 44.383 24.7634 44.2763 24.788 44.1444C24.8376 43.879 24.9205 43.5198 25.0523 43.1409C25.3298 42.3432 25.7607 41.6399 26.3738 41.3516C26.7263 41.1859 26.9766 41.1503 27.1741 41.1552C27.39 41.1606 27.5855 41.213 27.8813 41.2965L27.8983 41.3013C28.1206 41.364 28.402 41.4435 28.7279 41.476C28.8064 41.4839 28.8876 41.489 28.9711 41.4905C29.426 41.4985 29.9117 41.401 30.4631 41.1417Z" fill="url(#paint1_linear_1_1842)"/>
</g>
<path d="M94.8679 27.7416V20.7018H96.6477V27.7416H94.8679ZM92.2379 25.1116V23.3318H99.2777V25.1116H92.2379ZM109.011 19.1109V29.2927H106.858V21.1542H106.798L104.467 22.6158V20.7068L106.987 19.1109H109.011ZM115.229 29.4319C114.463 29.4319 113.782 29.3076 113.186 29.059C112.592 28.8071 112.127 28.4641 111.789 28.0299C111.451 27.5957 111.282 27.1035 111.282 26.5533C111.282 26.1291 111.378 25.7397 111.57 25.385C111.766 25.0271 112.031 24.7304 112.365 24.4951C112.7 24.2565 113.075 24.104 113.489 24.0377V23.9681C112.945 23.8587 112.505 23.5953 112.167 23.1776C111.828 22.7567 111.659 22.2678 111.659 21.711C111.659 21.184 111.814 20.715 112.122 20.3041C112.43 19.8898 112.853 19.5649 113.39 19.3296C113.93 19.091 114.543 18.9717 115.229 18.9717C115.915 18.9717 116.527 19.091 117.064 19.3296C117.604 19.5683 118.028 19.8947 118.336 20.309C118.645 20.72 118.8 21.1873 118.804 21.711C118.8 22.2712 118.628 22.76 118.287 23.1776C117.945 23.5953 117.508 23.8587 116.974 23.9681V24.0377C117.382 24.104 117.751 24.2565 118.083 24.4951C118.417 24.7304 118.683 25.0271 118.878 25.385C119.077 25.7397 119.178 26.1291 119.181 26.5533C119.178 27.1035 119.007 27.5957 118.669 28.0299C118.331 28.4641 117.864 28.8071 117.267 29.059C116.674 29.3076 115.995 29.4319 115.229 29.4319ZM115.229 27.8509C115.57 27.8509 115.869 27.7896 116.124 27.667C116.379 27.541 116.578 27.3687 116.721 27.1499C116.866 26.9279 116.939 26.6727 116.939 26.3843C116.939 26.0893 116.865 25.8292 116.716 25.6038C116.566 25.3751 116.364 25.1961 116.109 25.0668C115.854 24.9343 115.56 24.868 115.229 24.868C114.901 24.868 114.608 24.9343 114.349 25.0668C114.091 25.1961 113.887 25.3751 113.738 25.6038C113.592 25.8292 113.519 26.0893 113.519 26.3843C113.519 26.6727 113.59 26.9279 113.733 27.1499C113.875 27.3687 114.076 27.541 114.334 27.667C114.593 27.7896 114.891 27.8509 115.229 27.8509ZM115.229 23.3019C115.514 23.3019 115.768 23.2439 115.99 23.1279C116.212 23.0119 116.386 22.8512 116.512 22.6457C116.638 22.4402 116.701 22.2032 116.701 21.9347C116.701 21.6696 116.638 21.4376 116.512 21.2387C116.386 21.0365 116.213 20.8791 115.995 20.7664C115.776 20.6504 115.521 20.5924 115.229 20.5924C114.941 20.5924 114.685 20.6504 114.463 20.7664C114.241 20.8791 114.067 21.0365 113.941 21.2387C113.819 21.4376 113.757 21.6696 113.757 21.9347C113.757 22.2032 113.82 22.4402 113.946 22.6457C114.072 22.8512 114.246 23.0119 114.468 23.1279C114.69 23.2439 114.944 23.3019 115.229 23.3019ZM126.26 27.3836V26.8467C126.26 26.439 126.346 26.0645 126.518 25.7231C126.694 25.3784 126.948 25.1033 127.279 24.8978C127.614 24.689 128.021 24.5846 128.502 24.5846C128.989 24.5846 129.398 24.6873 129.73 24.8928C130.065 25.0983 130.317 25.3734 130.486 25.7181C130.658 26.0595 130.744 26.4357 130.744 26.8467V27.3836C130.744 27.7913 130.658 28.1675 130.486 28.5122C130.313 28.8535 130.06 29.127 129.725 29.3325C129.39 29.5413 128.983 29.6457 128.502 29.6457C128.015 29.6457 127.605 29.5413 127.274 29.3325C126.943 29.127 126.691 28.8535 126.518 28.5122C126.346 28.1675 126.26 27.7913 126.26 27.3836ZM127.706 26.8467V27.3836C127.706 27.6189 127.763 27.841 127.876 28.0498C127.992 28.2586 128.2 28.363 128.502 28.363C128.804 28.363 129.009 28.2603 129.118 28.0548C129.231 27.8493 129.287 27.6256 129.287 27.3836V26.8467C129.287 26.6047 129.234 26.3793 129.128 26.1705C129.022 25.9617 128.814 25.8573 128.502 25.8573C128.204 25.8573 127.997 25.9617 127.881 26.1705C127.765 26.3793 127.706 26.6047 127.706 26.8467ZM121.035 21.5569V21.02C121.035 20.609 121.122 20.2328 121.298 19.8914C121.474 19.5467 121.727 19.2716 122.059 19.0661C122.394 18.8606 122.798 18.7579 123.272 18.7579C123.762 18.7579 124.173 18.8606 124.505 19.0661C124.836 19.2716 125.088 19.5467 125.26 19.8914C125.433 20.2328 125.519 20.609 125.519 21.02V21.5569C125.519 21.9679 125.431 22.3441 125.256 22.6854C125.083 23.0268 124.83 23.3003 124.495 23.5058C124.163 23.7079 123.756 23.809 123.272 23.809C122.788 23.809 122.379 23.7063 122.044 23.5008C121.712 23.292 121.461 23.0185 121.288 22.6805C121.119 22.3391 121.035 21.9646 121.035 21.5569ZM122.491 21.02V21.5569C122.491 21.7988 122.548 22.0226 122.66 22.2281C122.776 22.4336 122.98 22.5363 123.272 22.5363C123.577 22.5363 123.784 22.4336 123.893 22.2281C124.006 22.0226 124.062 21.7988 124.062 21.5569V21.02C124.062 20.778 124.009 20.5526 123.903 20.3438C123.797 20.135 123.587 20.0306 123.272 20.0306C122.977 20.0306 122.773 20.1367 122.66 20.3488C122.548 20.5609 122.491 20.7846 122.491 21.02ZM121.691 29.2927L128.691 19.1109H129.993L122.993 29.2927H121.691Z" fill="#081735"/>
<path d="M94.75 47.2927H92.0568V38.5654H94.8693C95.7159 38.5654 96.4403 38.7401 97.0426 39.0896C97.6449 39.4362 98.1065 39.9347 98.4276 40.5853C98.7486 41.233 98.9091 42.0086 98.9091 42.912C98.9091 43.8211 98.7472 44.6038 98.4233 45.26C98.0994 45.9134 97.6278 46.4163 97.0085 46.7685C96.3892 47.118 95.6364 47.2927 94.75 47.2927ZM93.1136 46.3552H94.6818C95.4034 46.3552 96.0014 46.216 96.4759 45.9376C96.9503 45.6592 97.304 45.2629 97.5369 44.7487C97.7699 44.2345 97.8864 43.6222 97.8864 42.912C97.8864 42.2075 97.7713 41.6009 97.5412 41.0924C97.3111 40.581 96.9673 40.189 96.5099 39.9163C96.0526 39.6407 95.483 39.5029 94.8011 39.5029H93.1136V46.3552ZM102.472 47.4461C102.057 47.4461 101.68 47.368 101.342 47.2117C101.004 47.0526 100.736 46.8239 100.537 46.5256C100.338 46.2245 100.239 45.8609 100.239 45.4347C100.239 45.0597 100.313 44.7558 100.46 44.5228C100.608 44.287 100.805 44.1024 101.053 43.9688C101.3 43.8353 101.572 43.7359 101.871 43.6705C102.172 43.6024 102.474 43.5484 102.778 43.5086C103.176 43.4575 103.499 43.4191 103.746 43.3935C103.996 43.3651 104.178 43.3183 104.291 43.2529C104.408 43.1876 104.466 43.0739 104.466 42.912V42.8779C104.466 42.4575 104.351 42.1308 104.121 41.8978C103.893 41.6649 103.548 41.5484 103.085 41.5484C102.605 41.5484 102.229 41.6535 101.956 41.8637C101.683 42.0739 101.491 42.2984 101.381 42.537L100.426 42.1961C100.597 41.7984 100.824 41.4887 101.108 41.2671C101.395 41.0427 101.707 40.8864 102.045 40.7984C102.386 40.7075 102.722 40.662 103.051 40.662C103.261 40.662 103.503 40.6876 103.776 40.7387C104.051 40.787 104.317 40.8879 104.572 41.0413C104.831 41.1947 105.045 41.4262 105.216 41.7359C105.386 42.0455 105.472 42.4603 105.472 42.9802V47.2927H104.466V46.4063H104.415C104.347 46.5484 104.233 46.7004 104.074 46.8623C103.915 47.0242 103.703 47.162 103.439 47.2756C103.175 47.3893 102.852 47.4461 102.472 47.4461ZM102.625 46.5427C103.023 46.5427 103.358 46.4646 103.631 46.3083C103.906 46.1521 104.114 45.9504 104.253 45.7032C104.395 45.456 104.466 45.1961 104.466 44.9234V44.0029C104.423 44.0541 104.33 44.1009 104.185 44.1435C104.043 44.1833 103.878 44.2188 103.69 44.2501C103.506 44.2785 103.325 44.3041 103.149 44.3268C102.976 44.3467 102.835 44.3637 102.727 44.3779C102.466 44.412 102.222 44.4674 101.994 44.5441C101.77 44.618 101.588 44.7302 101.449 44.8808C101.313 45.0285 101.244 45.2302 101.244 45.4859C101.244 45.8353 101.374 46.0995 101.632 46.2785C101.893 46.4546 102.224 46.5427 102.625 46.5427ZM107.307 47.2927V40.7472H108.313V47.2927H107.307ZM107.819 39.6563C107.623 39.6563 107.453 39.5896 107.311 39.456C107.172 39.3225 107.103 39.162 107.103 38.9745C107.103 38.787 107.172 38.6265 107.311 38.493C107.453 38.3595 107.623 38.2927 107.819 38.2927C108.015 38.2927 108.182 38.3595 108.321 38.493C108.463 38.6265 108.534 38.787 108.534 38.9745C108.534 39.162 108.463 39.3225 108.321 39.456C108.182 39.5896 108.015 39.6563 107.819 39.6563ZM111.161 38.5654V47.2927H110.155V38.5654H111.161ZM113.65 49.7472C113.48 49.7472 113.328 49.733 113.194 49.7046C113.061 49.6791 112.968 49.6535 112.917 49.6279L113.173 48.7416C113.417 48.8041 113.633 48.8268 113.821 48.8097C114.008 48.7927 114.174 48.7089 114.319 48.5583C114.467 48.4106 114.602 48.1705 114.724 47.8381L114.912 47.3268L112.491 40.7472H113.582L115.389 45.9631H115.457L117.264 40.7472H118.355L115.576 48.2472C115.451 48.5853 115.297 48.8651 115.112 49.0867C114.927 49.3112 114.713 49.4774 114.468 49.5853C114.227 49.6933 113.954 49.7472 113.65 49.7472ZM125.716 47.4291C125.103 47.4291 124.574 47.2842 124.131 46.9944C123.688 46.7046 123.347 46.3055 123.108 45.797C122.87 45.2884 122.75 44.7075 122.75 44.0541C122.75 43.3893 122.873 42.8026 123.117 42.2941C123.364 41.7828 123.708 41.3836 124.148 41.0967C124.591 40.8069 125.108 40.662 125.699 40.662C126.159 40.662 126.574 40.7472 126.944 40.9177C127.313 41.0881 127.615 41.3268 127.851 41.6336C128.087 41.9404 128.233 42.2984 128.29 42.7075H127.284C127.208 42.4092 127.037 42.145 126.773 41.9149C126.512 41.6819 126.159 41.5654 125.716 41.5654C125.324 41.5654 124.98 41.6677 124.685 41.8722C124.392 42.0739 124.164 42.3595 123.999 42.7288C123.837 43.0953 123.756 43.5256 123.756 44.02C123.756 44.5256 123.836 44.966 123.995 45.341C124.157 45.716 124.384 46.0072 124.676 46.2146C124.972 46.422 125.319 46.5256 125.716 46.5256C125.978 46.5256 126.215 46.4802 126.428 46.3893C126.641 46.2984 126.821 46.1677 126.969 45.9972C127.117 45.8268 127.222 45.6222 127.284 45.3836H128.29C128.233 45.77 128.093 46.118 127.868 46.4276C127.647 46.7345 127.353 46.9788 126.986 47.1606C126.623 47.3396 126.199 47.4291 125.716 47.4291ZM133.885 44.6166V40.7472H134.891V47.2927H133.885V46.1847H133.817C133.664 46.5171 133.425 46.7998 133.101 47.0328C132.777 47.2629 132.368 47.3779 131.874 47.3779C131.465 47.3779 131.101 47.2884 130.783 47.1095C130.465 46.9276 130.215 46.6549 130.033 46.2913C129.851 45.9248 129.76 45.4631 129.76 44.9063V40.7472H130.766V44.8381C130.766 45.3154 130.9 45.6961 131.167 45.9802C131.436 46.2643 131.78 46.4063 132.198 46.4063C132.448 46.4063 132.702 46.3424 132.961 46.2146C133.222 46.0867 133.441 45.8907 133.617 45.6265C133.796 45.3623 133.885 45.0256 133.885 44.6166ZM141.369 42.2131L140.466 42.4688C140.409 42.3183 140.325 42.172 140.214 42.0299C140.107 41.885 139.959 41.7657 139.771 41.672C139.584 41.5782 139.344 41.5313 139.051 41.5313C138.651 41.5313 138.317 41.6237 138.05 41.8083C137.786 41.9901 137.653 42.2217 137.653 42.5029C137.653 42.7529 137.744 42.9504 137.926 43.0953C138.108 43.2401 138.392 43.3609 138.778 43.4575L139.75 43.6961C140.335 43.8381 140.771 44.0555 141.058 44.3481C141.345 44.6379 141.489 45.0114 141.489 45.4688C141.489 45.8438 141.381 46.1791 141.165 46.4745C140.952 46.77 140.653 47.0029 140.27 47.1734C139.886 47.3438 139.44 47.4291 138.932 47.4291C138.264 47.4291 137.712 47.2842 137.274 46.9944C136.837 46.7046 136.56 46.2813 136.443 45.7245L137.398 45.4859C137.489 45.8381 137.661 46.1024 137.913 46.2785C138.169 46.4546 138.503 46.5427 138.915 46.5427C139.384 46.5427 139.756 46.4433 140.031 46.2444C140.31 46.0427 140.449 45.8012 140.449 45.52C140.449 45.2927 140.369 45.1024 140.21 44.9489C140.051 44.7927 139.807 44.6762 139.477 44.5995L138.386 44.3438C137.787 44.2018 137.347 43.9816 137.065 43.6833C136.787 43.3822 136.648 43.0058 136.648 42.5541C136.648 42.1847 136.751 41.858 136.959 41.5739C137.169 41.2899 137.455 41.0668 137.815 40.9049C138.179 40.743 138.591 40.662 139.051 40.662C139.699 40.662 140.207 40.8041 140.577 41.0881C140.949 41.3722 141.213 41.7472 141.369 42.2131ZM145.849 40.7472V41.5995H142.457V40.7472H145.849ZM143.446 39.1791H144.451V45.4177C144.451 45.7018 144.493 45.9149 144.575 46.0569C144.66 46.1961 144.768 46.2899 144.899 46.3381C145.032 46.3836 145.173 46.4063 145.321 46.4063C145.431 46.4063 145.522 46.4006 145.593 46.3893C145.664 46.3751 145.721 46.3637 145.764 46.3552L145.968 47.2586C145.9 47.2842 145.805 47.3097 145.683 47.3353C145.561 47.3637 145.406 47.3779 145.218 47.3779C144.934 47.3779 144.656 47.3168 144.383 47.1947C144.113 47.0725 143.889 46.8864 143.71 46.6364C143.534 46.3864 143.446 46.0711 143.446 45.6904V39.1791ZM149.951 47.4291C149.36 47.4291 148.841 47.2884 148.395 47.0072C147.952 46.7259 147.605 46.3325 147.355 45.8268C147.108 45.3211 146.985 44.7302 146.985 44.0541C146.985 43.3722 147.108 42.7771 147.355 42.2685C147.605 41.76 147.952 41.3651 148.395 41.0839C148.841 40.8026 149.36 40.662 149.951 40.662C150.542 40.662 151.059 40.8026 151.502 41.0839C151.948 41.3651 152.294 41.76 152.542 42.2685C152.792 42.7771 152.917 43.3722 152.917 44.0541C152.917 44.7302 152.792 45.3211 152.542 45.8268C152.294 46.3325 151.948 46.7259 151.502 47.0072C151.059 47.2884 150.542 47.4291 149.951 47.4291ZM149.951 46.5256C150.4 46.5256 150.769 46.4106 151.059 46.1805C151.348 45.9504 151.563 45.6478 151.702 45.2728C151.841 44.8978 151.911 44.4916 151.911 44.0541C151.911 43.6166 151.841 43.2089 151.702 42.831C151.563 42.4532 151.348 42.1478 151.059 41.9149C150.769 41.6819 150.4 41.5654 149.951 41.5654C149.502 41.5654 149.132 41.6819 148.843 41.9149C148.553 42.1478 148.338 42.4532 148.199 42.831C148.06 43.2089 147.99 43.6166 147.99 44.0541C147.99 44.4916 148.06 44.8978 148.199 45.2728C148.338 45.6478 148.553 45.9504 148.843 46.1805C149.132 46.4106 149.502 46.5256 149.951 46.5256ZM154.452 47.2927V40.7472H155.423V41.77H155.509C155.645 41.4205 155.865 41.1492 156.169 40.956C156.473 40.76 156.838 40.662 157.264 40.662C157.696 40.662 158.055 40.76 158.342 40.956C158.632 41.1492 158.858 41.4205 159.02 41.77H159.088C159.256 41.4319 159.507 41.1634 159.842 40.9646C160.178 40.7629 160.58 40.662 161.048 40.662C161.634 40.662 162.112 40.8453 162.484 41.2117C162.857 41.5754 163.043 42.1421 163.043 42.912V47.2927H162.037V42.912C162.037 42.4291 161.905 42.0839 161.641 41.8765C161.376 41.6691 161.065 41.5654 160.707 41.5654C160.247 41.5654 159.891 41.7046 159.638 41.983C159.385 42.2586 159.259 42.608 159.259 43.0313V47.2927H158.236V42.8097C158.236 42.4376 158.115 42.1379 157.874 41.9106C157.632 41.6805 157.321 41.5654 156.94 41.5654C156.679 41.5654 156.435 41.635 156.207 41.7742C155.983 41.9134 155.801 42.1066 155.662 42.3538C155.526 42.5981 155.457 42.8808 155.457 43.2018V47.2927H154.452ZM167.626 47.4291C166.995 47.4291 166.451 47.2899 165.994 47.0114C165.539 46.7302 165.188 46.3381 164.941 45.8353C164.697 45.3296 164.575 44.7416 164.575 44.0711C164.575 43.4006 164.697 42.8097 164.941 42.2984C165.188 41.7842 165.532 41.3836 165.972 41.0967C166.415 40.8069 166.933 40.662 167.523 40.662C167.864 40.662 168.201 40.7188 168.533 40.8325C168.866 40.9461 169.168 41.1308 169.441 41.3864C169.714 41.6393 169.931 41.9745 170.093 42.3921C170.255 42.8097 170.336 43.3239 170.336 43.9347V44.3609H165.29V43.4916H169.313C169.313 43.1222 169.239 42.7927 169.092 42.5029C168.947 42.2131 168.739 41.9845 168.469 41.8168C168.202 41.6492 167.887 41.5654 167.523 41.5654C167.123 41.5654 166.776 41.6649 166.484 41.8637C166.194 42.0597 165.971 42.3154 165.815 42.6308C165.658 42.9461 165.58 43.2842 165.58 43.645V44.2245C165.58 44.7188 165.665 45.1379 165.836 45.4816C166.009 45.8225 166.249 46.0825 166.556 46.2614C166.863 46.4376 167.219 46.5256 167.626 46.5256C167.89 46.5256 168.129 46.4887 168.342 46.4149C168.558 46.3381 168.744 46.2245 168.9 46.0739C169.056 45.9205 169.177 45.7302 169.262 45.5029L170.234 45.7756C170.131 46.1052 169.96 46.395 169.718 46.645C169.477 46.8921 169.178 47.0853 168.823 47.2245C168.468 47.3609 168.069 47.4291 167.626 47.4291ZM171.866 47.2927V40.7472H172.837V41.7359H172.906C173.025 41.412 173.241 41.1492 173.553 40.9475C173.866 40.7458 174.218 40.645 174.61 40.645C174.684 40.645 174.776 40.6464 174.887 40.6492C174.998 40.6521 175.082 40.6563 175.138 40.662V41.6847C175.104 41.6762 175.026 41.6634 174.904 41.6464C174.785 41.6265 174.658 41.6166 174.525 41.6166C174.207 41.6166 173.923 41.6833 173.673 41.8168C173.425 41.9475 173.229 42.1293 173.085 42.3623C172.942 42.5924 172.871 42.8552 172.871 43.1506V47.2927H171.866ZM180.967 42.2131L180.064 42.4688C180.007 42.3183 179.923 42.172 179.812 42.0299C179.704 41.885 179.556 41.7657 179.369 41.672C179.181 41.5782 178.941 41.5313 178.649 41.5313C178.248 41.5313 177.914 41.6237 177.647 41.8083C177.383 41.9901 177.251 42.2217 177.251 42.5029C177.251 42.7529 177.342 42.9504 177.524 43.0953C177.706 43.2401 177.99 43.3609 178.376 43.4575L179.348 43.6961C179.933 43.8381 180.369 44.0555 180.656 44.3481C180.943 44.6379 181.086 45.0114 181.086 45.4688C181.086 45.8438 180.978 46.1791 180.762 46.4745C180.549 46.77 180.251 47.0029 179.868 47.1734C179.484 47.3438 179.038 47.4291 178.529 47.4291C177.862 47.4291 177.309 47.2842 176.872 46.9944C176.434 46.7046 176.157 46.2813 176.041 45.7245L176.995 45.4859C177.086 45.8381 177.258 46.1024 177.511 46.2785C177.767 46.4546 178.1 46.5427 178.512 46.5427C178.981 46.5427 179.353 46.4433 179.629 46.2444C179.907 46.0427 180.047 45.8012 180.047 45.52C180.047 45.2927 179.967 45.1024 179.808 44.9489C179.649 44.7927 179.404 44.6762 179.075 44.5995L177.984 44.3438C177.385 44.2018 176.944 43.9816 176.663 43.6833C176.385 43.3822 176.245 43.0058 176.245 42.5541C176.245 42.1847 176.349 41.858 176.556 41.5739C176.767 41.2899 177.052 41.0668 177.413 40.9049C177.777 40.743 178.189 40.662 178.649 40.662C179.297 40.662 179.805 40.8041 180.174 41.0881C180.547 41.3722 180.811 41.7472 180.967 42.2131Z" fill="#8F95B2"/>
<defs>
<filter id="filter0_d_1_1842" x="1" y="8.97562" width="66" height="66" filterUnits="userSpaceOnUse" color-interpolation-filters="sRGB">
<feFlood flood-opacity="0" result="BackgroundImageFix"/>
<feColorMatrix in="SourceAlpha" type="matrix" values="0 0 0 0 0 0 0 0 0 0 0 0 0 0 0 0 0 0 127 0" result="hardAlpha"/>
<feOffset dy="8"/>
<feGaussianBlur stdDeviation="8"/>
<feComposite in2="hardAlpha" operator="out"/>
<feColorMatrix type="matrix" values="0 0 0 0 0.431373 0 0 0 0 0.505882 0 0 0 0 0.996078 0 0 0 0.4 0"/>
<feBlend mode="normal" in2="BackgroundImageFix" result="effect1_dropShadow_1_1842"/>
<feBlend mode="normal" in="SourceGraphic" in2="effect1_dropShadow_1_1842" result="shape"/>
</filter>
<linearGradient id="paint0_linear_1_1842" x1="49.01" y1="-21.358" x2="4.38878" y2="64.5088" gradientUnits="userSpaceOnUse">
<stop stop-color="#6E81FE"/>
<stop offset="1" stop-color="#FFB7F5"/>
</linearGradient>
<linearGradient id="paint1_linear_1_1842" x1="34.3895" y1="56.5075" x2="14.6794" y2="9.76775" gradientUnits="userSpaceOnUse">
<stop stop-color="#687EFE"/>
<stop offset="1" stop-color="#FFB7F5"/>
</linearGradient>
<clipPath id="clip0_1_1842">
<rect width="67" height="68.6341" fill="white" transform="translate(0 0.975616)"/>
</clipPath>
</defs>
</svg>
