<svg width="246" height="15" viewBox="0 0 246 15" fill="none" xmlns="http://www.w3.org/2000/svg">
<ellipse cx="6" cy="7.50001" rx="6" ry="6.14634" fill="url(#paint0_linear_1_1877)"/>
<path d="M26.331 6.21733H24.7372C24.6918 5.95597 24.608 5.72443 24.4858 5.52273C24.3636 5.31818 24.2116 5.14489 24.0298 5.00284C23.848 4.8608 23.6406 4.75426 23.4077 4.68324C23.1776 4.60938 22.929 4.57244 22.6619 4.57244C22.1875 4.57244 21.767 4.69176 21.4006 4.9304C21.0341 5.16619 20.7472 5.51278 20.5398 5.97017C20.3324 6.42472 20.2287 6.98011 20.2287 7.63636C20.2287 8.30398 20.3324 8.86648 20.5398 9.32386C20.75 9.77841 21.0369 10.1222 21.4006 10.3551C21.767 10.5852 22.1861 10.7003 22.6577 10.7003C22.919 10.7003 23.1634 10.6662 23.3906 10.598C23.6207 10.527 23.8267 10.4233 24.0085 10.2869C24.1932 10.1506 24.348 9.98295 24.473 9.78409C24.6009 9.58523 24.6889 9.35795 24.7372 9.10227L26.331 9.1108C26.2713 9.52557 26.142 9.91477 25.9432 10.2784C25.7472 10.642 25.4901 10.9631 25.1719 11.2415C24.8537 11.517 24.4815 11.733 24.0554 11.8892C23.6293 12.0426 23.1563 12.1193 22.6364 12.1193C21.8693 12.1193 21.1847 11.9418 20.5824 11.5866C19.9801 11.2315 19.5057 10.7188 19.1591 10.0483C18.8125 9.37784 18.6392 8.57386 18.6392 7.63636C18.6392 6.69602 18.8139 5.89205 19.1634 5.22443C19.5128 4.55398 19.9886 4.04119 20.5909 3.68608C21.1932 3.33097 21.875 3.15341 22.6364 3.15341C23.1222 3.15341 23.5739 3.22159 23.9915 3.35795C24.4091 3.49432 24.7813 3.6946 25.108 3.95881C25.4347 4.22017 25.7031 4.54119 25.9134 4.92188C26.1264 5.29972 26.2656 5.73153 26.331 6.21733ZM31.8825 9.24716V5.45455H33.4251V12H31.9293V10.8366H31.8612C31.7134 11.2031 31.4705 11.5028 31.1325 11.7358C30.7972 11.9687 30.3839 12.0852 29.8924 12.0852C29.4634 12.0852 29.0842 11.9901 28.7546 11.7997C28.4279 11.6065 28.1722 11.3267 27.9876 10.9602C27.8029 10.5909 27.7106 10.1449 27.7106 9.62216V5.45455H29.2532V9.38352C29.2532 9.7983 29.3668 10.1278 29.5941 10.3722C29.8214 10.6165 30.1197 10.7386 30.489 10.7386C30.7163 10.7386 30.9364 10.6832 31.1495 10.5724C31.3626 10.4616 31.5373 10.2969 31.6737 10.0781C31.8129 9.85653 31.8825 9.57955 31.8825 9.24716ZM35.0114 12V5.45455H36.5071V6.54545H36.5753C36.6946 6.16761 36.8991 5.87642 37.1889 5.67188C37.4815 5.46449 37.8153 5.3608 38.1903 5.3608C38.2756 5.3608 38.3707 5.36506 38.4759 5.37358C38.5838 5.37926 38.6733 5.3892 38.7443 5.40341V6.82244C38.679 6.79972 38.5753 6.77983 38.4332 6.76278C38.294 6.7429 38.1591 6.73295 38.0284 6.73295C37.7472 6.73295 37.4943 6.79403 37.2699 6.91619C37.0483 7.03551 36.8736 7.2017 36.7457 7.41477C36.6179 7.62784 36.554 7.87358 36.554 8.15199V12H35.0114ZM39.7692 12V5.45455H41.2649V6.54545H41.3331C41.4524 6.16761 41.657 5.87642 41.9467 5.67188C42.2393 5.46449 42.5732 5.3608 42.9482 5.3608C43.0334 5.3608 43.1286 5.36506 43.2337 5.37358C43.3416 5.37926 43.4311 5.3892 43.5021 5.40341V6.82244C43.4368 6.79972 43.3331 6.77983 43.1911 6.76278C43.0518 6.7429 42.9169 6.73295 42.7862 6.73295C42.505 6.73295 42.2521 6.79403 42.0277 6.91619C41.8061 7.03551 41.6314 7.2017 41.5036 7.41477C41.3757 7.62784 41.3118 7.87358 41.3118 8.15199V12H39.7692ZM47.1552 12.1278C46.4989 12.1278 45.9322 11.9915 45.4549 11.7188C44.9805 11.4432 44.6154 11.054 44.3597 10.5511C44.104 10.0455 43.9762 9.45028 43.9762 8.76562C43.9762 8.09233 44.104 7.50142 44.3597 6.9929C44.6183 6.48153 44.979 6.08381 45.4421 5.79972C45.9052 5.51278 46.4492 5.36932 47.0742 5.36932C47.4776 5.36932 47.8583 5.43466 48.2163 5.56534C48.5771 5.69318 48.8952 5.89205 49.1708 6.16193C49.4492 6.43182 49.668 6.77557 49.8271 7.19318C49.9862 7.60795 50.0657 8.10227 50.0657 8.67614V9.14915H44.7006V8.10938H48.587C48.5842 7.81392 48.5202 7.55114 48.3952 7.32102C48.2702 7.08807 48.0955 6.90483 47.8711 6.77131C47.6495 6.63778 47.391 6.57102 47.0955 6.57102C46.7802 6.57102 46.5032 6.64773 46.2646 6.80114C46.0259 6.9517 45.8398 7.15057 45.7063 7.39773C45.5756 7.64205 45.5089 7.91051 45.506 8.20312V9.1108C45.506 9.49148 45.5756 9.81818 45.7148 10.0909C45.854 10.3608 46.0487 10.5682 46.2987 10.7131C46.5487 10.8551 46.8413 10.9261 47.1765 10.9261C47.4009 10.9261 47.604 10.8949 47.7859 10.8324C47.9677 10.767 48.1254 10.6719 48.2589 10.5469C48.3924 10.4219 48.4933 10.267 48.5614 10.0824L50.0018 10.2443C49.9109 10.625 49.7376 10.9574 49.4819 11.2415C49.229 11.5227 48.9052 11.7415 48.5103 11.8977C48.1154 12.0511 47.6637 12.1278 47.1552 12.1278ZM52.9134 8.16477V12H51.3707V5.45455H52.8452V6.56676H52.9219C53.0724 6.20028 53.3125 5.90909 53.642 5.69318C53.9744 5.47727 54.3849 5.36932 54.8736 5.36932C55.3253 5.36932 55.7188 5.46591 56.054 5.65909C56.392 5.85227 56.6534 6.1321 56.8381 6.49858C57.0256 6.86506 57.1179 7.30966 57.1151 7.83239V12H55.5724V8.07102C55.5724 7.63352 55.4588 7.29119 55.2315 7.04403C55.0071 6.79687 54.696 6.6733 54.2983 6.6733C54.0284 6.6733 53.7884 6.73295 53.5781 6.85227C53.3707 6.96875 53.2074 7.13778 53.0881 7.35938C52.9716 7.58097 52.9134 7.84943 52.9134 8.16477ZM61.9517 5.45455V6.64773H58.1889V5.45455H61.9517ZM59.1179 3.88636H60.6605V10.0312C60.6605 10.2386 60.6918 10.3977 60.7543 10.5085C60.8196 10.6165 60.9048 10.6903 61.0099 10.7301C61.1151 10.7699 61.2315 10.7898 61.3594 10.7898C61.456 10.7898 61.544 10.7827 61.6236 10.7685C61.706 10.7543 61.7685 10.7415 61.8111 10.7301L62.071 11.9361C61.9886 11.9645 61.8707 11.9957 61.7173 12.0298C61.5668 12.0639 61.3821 12.0838 61.1634 12.0895C60.777 12.1009 60.429 12.0426 60.1193 11.9148C59.8097 11.7841 59.5639 11.5824 59.3821 11.3097C59.2031 11.0369 59.1151 10.696 59.1179 10.2869V3.88636ZM69.0735 12.1278C68.4201 12.1278 67.859 11.9844 67.3903 11.6974C66.9244 11.4105 66.565 11.0142 66.3121 10.5085C66.0621 10 65.9371 9.41477 65.9371 8.75284C65.9371 8.08807 66.065 7.50142 66.3207 6.9929C66.5763 6.48153 66.9371 6.08381 67.4031 5.79972C67.8718 5.51278 68.4258 5.36932 69.065 5.36932C69.5962 5.36932 70.0664 5.46733 70.4755 5.66335C70.8874 5.85653 71.2156 6.13068 71.4599 6.4858C71.7042 6.83807 71.8434 7.25 71.8775 7.72159H70.4031C70.3434 7.40625 70.2013 7.14347 69.9769 6.93324C69.7553 6.72017 69.4585 6.61364 69.0863 6.61364C68.771 6.61364 68.494 6.69886 68.2553 6.86932C68.0167 7.03693 67.8306 7.27841 67.6971 7.59375C67.5664 7.90909 67.5011 8.28693 67.5011 8.72727C67.5011 9.1733 67.5664 9.55682 67.6971 9.87784C67.8278 10.196 68.011 10.4418 68.2468 10.6151C68.4854 10.7855 68.7653 10.8707 69.0863 10.8707C69.3136 10.8707 69.5167 10.8281 69.6957 10.7429C69.8775 10.6548 70.0295 10.5284 70.1516 10.3636C70.2738 10.1989 70.3576 9.99858 70.4031 9.76278H71.8775C71.8406 10.2259 71.7042 10.6364 71.4684 10.9943C71.2326 11.3494 70.9116 11.6278 70.5053 11.8295C70.0991 12.0284 69.6218 12.1278 69.0735 12.1278ZM77.3161 9.24716V5.45455H78.8587V12H77.3629V10.8366H77.2947C77.147 11.2031 76.9041 11.5028 76.5661 11.7358C76.2308 11.9687 75.8175 12.0852 75.326 12.0852C74.897 12.0852 74.5178 11.9901 74.1882 11.7997C73.8615 11.6065 73.6058 11.3267 73.4212 10.9602C73.2365 10.5909 73.1442 10.1449 73.1442 9.62216V5.45455H74.6868V9.38352C74.6868 9.7983 74.8004 10.1278 75.0277 10.3722C75.255 10.6165 75.5533 10.7386 75.9226 10.7386C76.1499 10.7386 76.37 10.6832 76.5831 10.5724C76.7962 10.4616 76.9709 10.2969 77.1072 10.0781C77.2464 9.85653 77.3161 9.57955 77.3161 9.24716ZM85.6183 7.18466L84.212 7.33807C84.1722 7.19602 84.1026 7.0625 84.0032 6.9375C83.9066 6.8125 83.7759 6.71165 83.6112 6.63494C83.4464 6.55824 83.2447 6.51989 83.006 6.51989C82.685 6.51989 82.4151 6.58949 82.1964 6.72869C81.9805 6.8679 81.8739 7.0483 81.8768 7.26989C81.8739 7.46023 81.9435 7.61506 82.0856 7.73438C82.2305 7.85369 82.4691 7.9517 82.8015 8.02841L83.918 8.26705C84.5373 8.40057 84.9975 8.61222 85.2987 8.90199C85.6026 9.19176 85.756 9.57102 85.7589 10.0398C85.756 10.4517 85.6353 10.8153 85.3967 11.1307C85.1609 11.4432 84.8327 11.6875 84.4123 11.8636C83.9918 12.0398 83.5089 12.1278 82.9634 12.1278C82.1623 12.1278 81.5174 11.9602 81.0288 11.625C80.5401 11.2869 80.2489 10.8168 80.1552 10.2145L81.6594 10.0696C81.7276 10.3651 81.8725 10.5881 82.0941 10.7386C82.3157 10.8892 82.604 10.9645 82.9592 10.9645C83.3256 10.9645 83.6197 10.8892 83.8413 10.7386C84.0657 10.5881 84.1779 10.402 84.1779 10.1804C84.1779 9.9929 84.1055 9.83807 83.9606 9.71591C83.8185 9.59375 83.5969 9.5 83.2958 9.43466L82.1793 9.20028C81.5515 9.0696 81.087 8.84943 80.7859 8.53977C80.4847 8.22727 80.3356 7.83239 80.3384 7.35511C80.3356 6.9517 80.445 6.60227 80.6665 6.30682C80.891 6.00852 81.2021 5.77841 81.5998 5.61648C82.0004 5.4517 82.462 5.36932 82.9847 5.36932C83.7518 5.36932 84.3555 5.53267 84.7958 5.85938C85.239 6.18608 85.5131 6.62784 85.6183 7.18466ZM90.2994 5.45455V6.64773H86.5366V5.45455H90.2994ZM87.4656 3.88636H89.0082V10.0312C89.0082 10.2386 89.0394 10.3977 89.1019 10.5085C89.1673 10.6165 89.2525 10.6903 89.3576 10.7301C89.4627 10.7699 89.5792 10.7898 89.707 10.7898C89.8036 10.7898 89.8917 10.7827 89.9712 10.7685C90.0536 10.7543 90.1161 10.7415 90.1587 10.7301L90.4187 11.9361C90.3363 11.9645 90.2184 11.9957 90.065 12.0298C89.9144 12.0639 89.7298 12.0838 89.511 12.0895C89.1246 12.1009 88.7766 12.0426 88.467 11.9148C88.1573 11.7841 87.9116 11.5824 87.7298 11.3097C87.5508 11.0369 87.4627 10.696 87.4656 10.2869V3.88636ZM94.3743 12.1278C93.7351 12.1278 93.1811 11.9872 92.7124 11.706C92.2436 11.4247 91.88 11.0312 91.6214 10.5256C91.3658 10.0199 91.2379 9.42898 91.2379 8.75284C91.2379 8.0767 91.3658 7.48437 91.6214 6.97585C91.88 6.46733 92.2436 6.07244 92.7124 5.79119C93.1811 5.50994 93.7351 5.36932 94.3743 5.36932C95.0135 5.36932 95.5675 5.50994 96.0362 5.79119C96.505 6.07244 96.8672 6.46733 97.1229 6.97585C97.3814 7.48437 97.5107 8.0767 97.5107 8.75284C97.5107 9.42898 97.3814 10.0199 97.1229 10.5256C96.8672 11.0312 96.505 11.4247 96.0362 11.706C95.5675 11.9872 95.0135 12.1278 94.3743 12.1278ZM94.3828 10.892C94.7294 10.892 95.0192 10.7969 95.2521 10.6065C95.4851 10.4134 95.6584 10.1548 95.772 9.83097C95.8885 9.5071 95.9467 9.14631 95.9467 8.74858C95.9467 8.34801 95.8885 7.9858 95.772 7.66193C95.6584 7.33523 95.4851 7.07528 95.2521 6.8821C95.0192 6.68892 94.7294 6.59233 94.3828 6.59233C94.0277 6.59233 93.7322 6.68892 93.4964 6.8821C93.2635 7.07528 93.0888 7.33523 92.9723 7.66193C92.8587 7.9858 92.8018 8.34801 92.8018 8.74858C92.8018 9.14631 92.8587 9.5071 92.9723 9.83097C93.0888 10.1548 93.2635 10.4134 93.4964 10.6065C93.7322 10.7969 94.0277 10.892 94.3828 10.892ZM98.82 12V5.45455H100.294V6.56676H100.371C100.507 6.19176 100.733 5.89915 101.049 5.68892C101.364 5.47585 101.74 5.36932 102.178 5.36932C102.621 5.36932 102.995 5.47727 103.299 5.69318C103.605 5.90625 103.821 6.19744 103.946 6.56676H104.015C104.159 6.20312 104.404 5.91335 104.748 5.69744C105.094 5.47869 105.505 5.36932 105.979 5.36932C106.581 5.36932 107.073 5.55966 107.453 5.94034C107.834 6.32102 108.025 6.87642 108.025 7.60653V12H106.478V7.84517C106.478 7.43892 106.37 7.14205 106.154 6.95455C105.938 6.7642 105.674 6.66903 105.361 6.66903C104.989 6.66903 104.698 6.78551 104.488 7.01847C104.28 7.24858 104.176 7.5483 104.176 7.91761V12H102.664V7.78125C102.664 7.44318 102.561 7.1733 102.357 6.97159C102.155 6.76989 101.891 6.66903 101.564 6.66903C101.343 6.66903 101.141 6.72585 100.959 6.83949C100.777 6.95028 100.632 7.10795 100.525 7.3125C100.417 7.5142 100.363 7.75 100.363 8.01989V12H98.82ZM112.487 12.1278C111.831 12.1278 111.264 11.9915 110.787 11.7188C110.313 11.4432 109.947 11.054 109.692 10.5511C109.436 10.0455 109.308 9.45028 109.308 8.76562C109.308 8.09233 109.436 7.50142 109.692 6.9929C109.95 6.48153 110.311 6.08381 110.774 5.79972C111.237 5.51278 111.781 5.36932 112.406 5.36932C112.81 5.36932 113.19 5.43466 113.548 5.56534C113.909 5.69318 114.227 5.89205 114.503 6.16193C114.781 6.43182 115 6.77557 115.159 7.19318C115.318 7.60795 115.398 8.10227 115.398 8.67614V9.14915H110.033V8.10938H113.919C113.916 7.81392 113.852 7.55114 113.727 7.32102C113.602 7.08807 113.428 6.90483 113.203 6.77131C112.982 6.63778 112.723 6.57102 112.428 6.57102C112.112 6.57102 111.835 6.64773 111.597 6.80114C111.358 6.9517 111.172 7.15057 111.038 7.39773C110.908 7.64205 110.841 7.91051 110.838 8.20312V9.1108C110.838 9.49148 110.908 9.81818 111.047 10.0909C111.186 10.3608 111.381 10.5682 111.631 10.7131C111.881 10.8551 112.173 10.9261 112.509 10.9261C112.733 10.9261 112.936 10.8949 113.118 10.8324C113.3 10.767 113.457 10.6719 113.591 10.5469C113.724 10.4219 113.825 10.267 113.893 10.0824L115.334 10.2443C115.243 10.625 115.07 10.9574 114.814 11.2415C114.561 11.5227 114.237 11.7415 113.842 11.8977C113.447 12.0511 112.996 12.1278 112.487 12.1278ZM116.703 12V5.45455H118.199V6.54545H118.267C118.386 6.16761 118.591 5.87642 118.88 5.67188C119.173 5.46449 119.507 5.3608 119.882 5.3608C119.967 5.3608 120.062 5.36506 120.167 5.37358C120.275 5.37926 120.365 5.3892 120.436 5.40341V6.82244C120.37 6.79972 120.267 6.77983 120.125 6.76278C119.985 6.7429 119.85 6.73295 119.72 6.73295C119.439 6.73295 119.186 6.79403 118.961 6.91619C118.74 7.03551 118.565 7.2017 118.437 7.41477C118.309 7.62784 118.245 7.87358 118.245 8.15199V12H116.703ZM126.634 7.18466L125.228 7.33807C125.188 7.19602 125.118 7.0625 125.019 6.9375C124.922 6.8125 124.792 6.71165 124.627 6.63494C124.462 6.55824 124.26 6.51989 124.022 6.51989C123.701 6.51989 123.431 6.58949 123.212 6.72869C122.996 6.8679 122.89 7.0483 122.892 7.26989C122.89 7.46023 122.959 7.61506 123.101 7.73438C123.246 7.85369 123.485 7.9517 123.817 8.02841L124.934 8.26705C125.553 8.40057 126.013 8.61222 126.314 8.90199C126.618 9.19176 126.772 9.57102 126.775 10.0398C126.772 10.4517 126.651 10.8153 126.412 11.1307C126.176 11.4432 125.848 11.6875 125.428 11.8636C125.007 12.0398 124.525 12.1278 123.979 12.1278C123.178 12.1278 122.533 11.9602 122.044 11.625C121.556 11.2869 121.265 10.8168 121.171 10.2145L122.675 10.0696C122.743 10.3651 122.888 10.5881 123.11 10.7386C123.331 10.8892 123.62 10.9645 123.975 10.9645C124.341 10.9645 124.635 10.8892 124.857 10.7386C125.081 10.5881 125.194 10.402 125.194 10.1804C125.194 9.9929 125.121 9.83807 124.976 9.71591C124.834 9.59375 124.613 9.5 124.311 9.43466L123.195 9.20028C122.567 9.0696 122.103 8.84943 121.801 8.53977C121.5 8.22727 121.351 7.83239 121.354 7.35511C121.351 6.9517 121.461 6.60227 121.682 6.30682C121.907 6.00852 122.218 5.77841 122.615 5.61648C123.016 5.4517 123.478 5.36932 124 5.36932C124.767 5.36932 125.371 5.53267 125.811 5.85938C126.255 6.18608 126.529 6.62784 126.634 7.18466Z" fill="#081735"/>
<ellipse cx="143" cy="7.50001" rx="6" ry="6.14634" fill="url(#paint1_linear_1_1877)"/>
<path d="M163.033 3.27273V12H161.626L157.514 6.0554H157.442V12H155.861V3.27273H157.276L161.384 9.22159H161.46V3.27273H163.033ZM167.585 12.1278C166.929 12.1278 166.362 11.9915 165.885 11.7188C165.41 11.4432 165.045 11.054 164.789 10.5511C164.534 10.0455 164.406 9.45028 164.406 8.76562C164.406 8.09233 164.534 7.50142 164.789 6.9929C165.048 6.48153 165.409 6.08381 165.872 5.79972C166.335 5.51278 166.879 5.36932 167.504 5.36932C167.907 5.36932 168.288 5.43466 168.646 5.56534C169.007 5.69318 169.325 5.89205 169.6 6.16193C169.879 6.43182 170.098 6.77557 170.257 7.19318C170.416 7.60795 170.495 8.10227 170.495 8.67614V9.14915H165.13V8.10938H169.017C169.014 7.81392 168.95 7.55114 168.825 7.32102C168.7 7.08807 168.525 6.90483 168.301 6.77131C168.079 6.63778 167.821 6.57102 167.525 6.57102C167.21 6.57102 166.933 6.64773 166.694 6.80114C166.456 6.9517 166.27 7.15057 166.136 7.39773C166.005 7.64205 165.939 7.91051 165.936 8.20312V9.1108C165.936 9.49148 166.005 9.81818 166.145 10.0909C166.284 10.3608 166.478 10.5682 166.728 10.7131C166.978 10.8551 167.271 10.9261 167.606 10.9261C167.831 10.9261 168.034 10.8949 168.216 10.8324C168.397 10.767 168.555 10.6719 168.689 10.5469C168.822 10.4219 168.923 10.267 168.991 10.0824L170.431 10.2443C170.341 10.625 170.167 10.9574 169.912 11.2415C169.659 11.5227 169.335 11.7415 168.94 11.8977C168.545 12.0511 168.093 12.1278 167.585 12.1278ZM173.116 12L171.267 5.45455H172.839L173.99 10.0568H174.049L175.225 5.45455H176.781L177.957 10.0312H178.021L179.154 5.45455H180.731L178.877 12H177.271L176.044 7.5767H175.954L174.727 12H173.116ZM187.64 12.1278C186.987 12.1278 186.425 11.9844 185.957 11.6974C185.491 11.4105 185.131 11.0142 184.879 10.5085C184.629 10 184.504 9.41477 184.504 8.75284C184.504 8.08807 184.631 7.50142 184.887 6.9929C185.143 6.48153 185.504 6.08381 185.969 5.79972C186.438 5.51278 186.992 5.36932 187.631 5.36932C188.163 5.36932 188.633 5.46733 189.042 5.66335C189.454 5.85653 189.782 6.13068 190.026 6.4858C190.271 6.83807 190.41 7.25 190.444 7.72159H188.969C188.91 7.40625 188.768 7.14347 188.543 6.93324C188.322 6.72017 188.025 6.61364 187.653 6.61364C187.337 6.61364 187.06 6.69886 186.822 6.86932C186.583 7.03693 186.397 7.27841 186.263 7.59375C186.133 7.90909 186.067 8.28693 186.067 8.72727C186.067 9.1733 186.133 9.55682 186.263 9.87784C186.394 10.196 186.577 10.4418 186.813 10.6151C187.052 10.7855 187.332 10.8707 187.653 10.8707C187.88 10.8707 188.083 10.8281 188.262 10.7429C188.444 10.6548 188.596 10.5284 188.718 10.3636C188.84 10.1989 188.924 9.99858 188.969 9.76278H190.444C190.407 10.2259 190.271 10.6364 190.035 10.9943C189.799 11.3494 189.478 11.6278 189.072 11.8295C188.665 12.0284 188.188 12.1278 187.64 12.1278ZM195.882 9.24716V5.45455H197.425V12H195.929V10.8366H195.861C195.713 11.2031 195.471 11.5028 195.132 11.7358C194.797 11.9687 194.384 12.0852 193.892 12.0852C193.463 12.0852 193.084 11.9901 192.755 11.7997C192.428 11.6065 192.172 11.3267 191.988 10.9602C191.803 10.5909 191.711 10.1449 191.711 9.62216V5.45455H193.253V9.38352C193.253 9.7983 193.367 10.1278 193.594 10.3722C193.821 10.6165 194.12 10.7386 194.489 10.7386C194.716 10.7386 194.936 10.6832 195.15 10.5724C195.363 10.4616 195.537 10.2969 195.674 10.0781C195.813 9.85653 195.882 9.57955 195.882 9.24716ZM204.185 7.18466L202.778 7.33807C202.739 7.19602 202.669 7.0625 202.57 6.9375C202.473 6.8125 202.342 6.71165 202.178 6.63494C202.013 6.55824 201.811 6.51989 201.572 6.51989C201.251 6.51989 200.982 6.58949 200.763 6.72869C200.547 6.8679 200.44 7.0483 200.443 7.26989C200.44 7.46023 200.51 7.61506 200.652 7.73438C200.797 7.85369 201.036 7.9517 201.368 8.02841L202.484 8.26705C203.104 8.40057 203.564 8.61222 203.865 8.90199C204.169 9.19176 204.322 9.57102 204.325 10.0398C204.322 10.4517 204.202 10.8153 203.963 11.1307C203.727 11.4432 203.399 11.6875 202.979 11.8636C202.558 12.0398 202.075 12.1278 201.53 12.1278C200.729 12.1278 200.084 11.9602 199.595 11.625C199.107 11.2869 198.815 10.8168 198.722 10.2145L200.226 10.0696C200.294 10.3651 200.439 10.5881 200.661 10.7386C200.882 10.8892 201.17 10.9645 201.526 10.9645C201.892 10.9645 202.186 10.8892 202.408 10.7386C202.632 10.5881 202.744 10.402 202.744 10.1804C202.744 9.9929 202.672 9.83807 202.527 9.71591C202.385 9.59375 202.163 9.5 201.862 9.43466L200.746 9.20028C200.118 9.0696 199.653 8.84943 199.352 8.53977C199.051 8.22727 198.902 7.83239 198.905 7.35511C198.902 6.9517 199.011 6.60227 199.233 6.30682C199.457 6.00852 199.768 5.77841 200.166 5.61648C200.567 5.4517 201.028 5.36932 201.551 5.36932C202.318 5.36932 202.922 5.53267 203.362 5.85938C203.805 6.18608 204.08 6.62784 204.185 7.18466ZM208.866 5.45455V6.64773H205.103V5.45455H208.866ZM206.032 3.88636H207.575V10.0312C207.575 10.2386 207.606 10.3977 207.668 10.5085C207.734 10.6165 207.819 10.6903 207.924 10.7301C208.029 10.7699 208.146 10.7898 208.273 10.7898C208.37 10.7898 208.458 10.7827 208.538 10.7685C208.62 10.7543 208.683 10.7415 208.725 10.7301L208.985 11.9361C208.903 11.9645 208.785 11.9957 208.631 12.0298C208.481 12.0639 208.296 12.0838 208.077 12.0895C207.691 12.1009 207.343 12.0426 207.033 11.9148C206.724 11.7841 206.478 11.5824 206.296 11.3097C206.117 11.0369 206.029 10.696 206.032 10.2869V3.88636ZM212.941 12.1278C212.301 12.1278 211.748 11.9872 211.279 11.706C210.81 11.4247 210.446 11.0312 210.188 10.5256C209.932 10.0199 209.804 9.42898 209.804 8.75284C209.804 8.0767 209.932 7.48437 210.188 6.97585C210.446 6.46733 210.81 6.07244 211.279 5.79119C211.748 5.50994 212.301 5.36932 212.941 5.36932C213.58 5.36932 214.134 5.50994 214.603 5.79119C215.071 6.07244 215.434 6.46733 215.689 6.97585C215.948 7.48437 216.077 8.0767 216.077 8.75284C216.077 9.42898 215.948 10.0199 215.689 10.5256C215.434 11.0312 215.071 11.4247 214.603 11.706C214.134 11.9872 213.58 12.1278 212.941 12.1278ZM212.949 10.892C213.296 10.892 213.586 10.7969 213.819 10.6065C214.051 10.4134 214.225 10.1548 214.338 9.83097C214.455 9.5071 214.513 9.14631 214.513 8.74858C214.513 8.34801 214.455 7.9858 214.338 7.66193C214.225 7.33523 214.051 7.07528 213.819 6.8821C213.586 6.68892 213.296 6.59233 212.949 6.59233C212.594 6.59233 212.299 6.68892 212.063 6.8821C211.83 7.07528 211.655 7.33523 211.539 7.66193C211.425 7.9858 211.368 8.34801 211.368 8.74858C211.368 9.14631 211.425 9.5071 211.539 9.83097C211.655 10.1548 211.83 10.4134 212.063 10.6065C212.299 10.7969 212.594 10.892 212.949 10.892ZM217.386 12V5.45455H218.861V6.56676H218.938C219.074 6.19176 219.3 5.89915 219.615 5.68892C219.93 5.47585 220.307 5.36932 220.744 5.36932C221.188 5.36932 221.561 5.47727 221.865 5.69318C222.172 5.90625 222.388 6.19744 222.513 6.56676H222.581C222.726 6.20312 222.97 5.91335 223.314 5.69744C223.661 5.47869 224.071 5.36932 224.545 5.36932C225.148 5.36932 225.639 5.55966 226.02 5.94034C226.401 6.32102 226.591 6.87642 226.591 7.60653V12H225.044V7.84517C225.044 7.43892 224.936 7.14205 224.72 6.95455C224.504 6.7642 224.24 6.66903 223.928 6.66903C223.555 6.66903 223.264 6.78551 223.054 7.01847C222.847 7.24858 222.743 7.5483 222.743 7.91761V12H221.23V7.78125C221.23 7.44318 221.128 7.1733 220.923 6.97159C220.722 6.76989 220.457 6.66903 220.131 6.66903C219.909 6.66903 219.707 6.72585 219.526 6.83949C219.344 6.95028 219.199 7.10795 219.091 7.3125C218.983 7.5142 218.929 7.75 218.929 8.01989V12H217.386ZM231.054 12.1278C230.397 12.1278 229.831 11.9915 229.353 11.7188C228.879 11.4432 228.514 11.054 228.258 10.5511C228.002 10.0455 227.875 9.45028 227.875 8.76562C227.875 8.09233 228.002 7.50142 228.258 6.9929C228.517 6.48153 228.877 6.08381 229.341 5.79972C229.804 5.51278 230.348 5.36932 230.973 5.36932C231.376 5.36932 231.757 5.43466 232.115 5.56534C232.475 5.69318 232.794 5.89205 233.069 6.16193C233.348 6.43182 233.566 6.77557 233.725 7.19318C233.885 7.60795 233.964 8.10227 233.964 8.67614V9.14915H228.599V8.10938H232.485C232.483 7.81392 232.419 7.55114 232.294 7.32102C232.169 7.08807 231.994 6.90483 231.77 6.77131C231.548 6.63778 231.289 6.57102 230.994 6.57102C230.679 6.57102 230.402 6.64773 230.163 6.80114C229.924 6.9517 229.738 7.15057 229.605 7.39773C229.474 7.64205 229.407 7.91051 229.404 8.20312V9.1108C229.404 9.49148 229.474 9.81818 229.613 10.0909C229.752 10.3608 229.947 10.5682 230.197 10.7131C230.447 10.8551 230.74 10.9261 231.075 10.9261C231.299 10.9261 231.502 10.8949 231.684 10.8324C231.866 10.767 232.024 10.6719 232.157 10.5469C232.291 10.4219 232.392 10.267 232.46 10.0824L233.9 10.2443C233.809 10.625 233.636 10.9574 233.38 11.2415C233.127 11.5227 232.804 11.7415 232.409 11.8977C232.014 12.0511 231.562 12.1278 231.054 12.1278ZM235.269 12V5.45455H236.765V6.54545H236.833C236.952 6.16761 237.157 5.87642 237.447 5.67188C237.739 5.46449 238.073 5.3608 238.448 5.3608C238.533 5.3608 238.629 5.36506 238.734 5.37358C238.842 5.37926 238.931 5.3892 239.002 5.40341V6.82244C238.937 6.79972 238.833 6.77983 238.691 6.76278C238.552 6.7429 238.417 6.73295 238.286 6.73295C238.005 6.73295 237.752 6.79403 237.528 6.91619C237.306 7.03551 237.131 7.2017 237.004 7.41477C236.876 7.62784 236.812 7.87358 236.812 8.15199V12H235.269ZM245.2 7.18466L243.794 7.33807C243.754 7.19602 243.685 7.0625 243.585 6.9375C243.489 6.8125 243.358 6.71165 243.193 6.63494C243.028 6.55824 242.827 6.51989 242.588 6.51989C242.267 6.51989 241.997 6.58949 241.778 6.72869C241.562 6.8679 241.456 7.0483 241.459 7.26989C241.456 7.46023 241.526 7.61506 241.668 7.73438C241.813 7.85369 242.051 7.9517 242.384 8.02841L243.5 8.26705C244.119 8.40057 244.58 8.61222 244.881 8.90199C245.185 9.19176 245.338 9.57102 245.341 10.0398C245.338 10.4517 245.217 10.8153 244.979 11.1307C244.743 11.4432 244.415 11.6875 243.994 11.8636C243.574 12.0398 243.091 12.1278 242.545 12.1278C241.744 12.1278 241.099 11.9602 240.611 11.625C240.122 11.2869 239.831 10.8168 239.737 10.2145L241.241 10.0696C241.31 10.3651 241.455 10.5881 241.676 10.7386C241.898 10.8892 242.186 10.9645 242.541 10.9645C242.908 10.9645 243.202 10.8892 243.423 10.7386C243.648 10.5881 243.76 10.402 243.76 10.1804C243.76 9.9929 243.688 9.83807 243.543 9.71591C243.401 9.59375 243.179 9.5 242.878 9.43466L241.761 9.20028C241.134 9.0696 240.669 8.84943 240.368 8.53977C240.067 8.22727 239.918 7.83239 239.92 7.35511C239.918 6.9517 240.027 6.60227 240.249 6.30682C240.473 6.00852 240.784 5.77841 241.182 5.61648C241.582 5.4517 242.044 5.36932 242.567 5.36932C243.334 5.36932 243.938 5.53267 244.378 5.85938C244.821 6.18608 245.095 6.62784 245.2 7.18466Z" fill="#081735"/>
<defs>
<linearGradient id="paint0_linear_1_1877" x1="6" y1="21.1449" x2="-9.01583" y2="-7.63617" gradientUnits="userSpaceOnUse">
<stop stop-color="#667EFE"/>
<stop offset="1" stop-color="#FFB7F5"/>
</linearGradient>
<linearGradient id="paint1_linear_1_1877" x1="154.162" y1="0.128994" x2="134.431" y2="-4.6567" gradientUnits="userSpaceOnUse">
<stop stop-color="#A3CB31"/>
<stop offset="1" stop-color="#CDF4FF"/>
</linearGradient>
</defs>
</svg>
