<svg width="262" height="274" viewBox="0 0 262 274" fill="none" xmlns="http://www.w3.org/2000/svg">
<g filter="url(#filter0_d_1_1866)">
<ellipse cx="125.5" cy="121" rx="102.5" ry="105" fill="white"/>
</g>
<ellipse cx="123.949" cy="121.565" rx="73.293" ry="75.0807" stroke="#6C5DD3" stroke-opacity="0.1" stroke-width="16.849"/>
<g filter="url(#filter1_d_1_1866)">
<path d="M72.5595 174.565C81.3611 183.65 92.2827 190.264 104.281 193.776C116.279 197.288 128.954 197.581 141.093 194.626C153.233 191.671 164.433 185.568 173.623 176.898C182.812 168.229 189.685 157.283 193.585 145.107C197.485 132.931 198.281 119.931 195.898 107.348C193.515 94.766 188.032 83.0215 179.972 73.2368" stroke="url(#paint0_linear_1_1866)" stroke-width="26.4516"/>
</g>
<g filter="url(#filter2_d_1_1866)">
<path d="M197.242 121.565C197.242 111.705 195.346 101.942 191.663 92.8324C187.98 83.7232 182.581 75.4464 175.775 68.4745C168.969 61.5026 160.889 55.9722 151.997 52.199C143.105 48.4259 133.574 46.4839 123.949 46.4839" stroke="url(#paint1_linear_1_1866)" stroke-width="35.2688"/>
</g>
<g filter="url(#filter3_d_1_1866)">
<ellipse cx="123.398" cy="121" rx="44.086" ry="45.1613" fill="#FAFBFF"/>
</g>
<path d="M102.044 116.695C101.06 116.695 100.184 116.535 99.4171 116.216C98.6543 115.892 98.0556 115.451 97.6209 114.893C97.1863 114.334 96.9689 113.701 96.9689 112.994C96.9689 112.449 97.0925 111.948 97.3397 111.492C97.5911 111.032 97.932 110.65 98.3624 110.348C98.7928 110.041 99.2743 109.845 99.807 109.76V109.67C99.1082 109.53 98.5414 109.191 98.1067 108.654C97.6721 108.113 97.4547 107.484 97.4547 106.768C97.4547 106.091 97.6529 105.488 98.0492 104.959C98.4455 104.427 98.9888 104.009 99.6792 103.706C100.374 103.4 101.162 103.246 102.044 103.246C102.926 103.246 103.713 103.4 104.403 103.706C105.097 104.013 105.643 104.433 106.039 104.966C106.436 105.494 106.636 106.095 106.64 106.768C106.636 107.488 106.414 108.117 105.975 108.654C105.536 109.191 104.974 109.53 104.288 109.67V109.76C104.812 109.845 105.287 110.041 105.713 110.348C106.144 110.65 106.485 111.032 106.736 111.492C106.992 111.948 107.122 112.449 107.126 112.994C107.122 113.701 106.902 114.334 106.468 114.893C106.033 115.451 105.432 115.892 104.665 116.216C103.902 116.535 103.029 116.695 102.044 116.695ZM102.044 114.662C102.483 114.662 102.867 114.584 103.195 114.426C103.523 114.264 103.779 114.042 103.962 113.761C104.149 113.476 104.243 113.148 104.243 112.777C104.243 112.398 104.147 112.063 103.955 111.773C103.764 111.479 103.504 111.249 103.176 111.083C102.847 110.912 102.47 110.827 102.044 110.827C101.622 110.827 101.245 110.912 100.913 111.083C100.58 111.249 100.318 111.479 100.127 111.773C99.9391 112.063 99.8454 112.398 99.8454 112.777C99.8454 113.148 99.937 113.476 100.12 113.761C100.303 114.042 100.561 114.264 100.894 114.426C101.226 114.584 101.61 114.662 102.044 114.662ZM102.044 108.814C102.411 108.814 102.737 108.739 103.022 108.59C103.308 108.441 103.531 108.234 103.693 107.97C103.855 107.706 103.936 107.401 103.936 107.056C103.936 106.715 103.855 106.417 103.693 106.161C103.531 105.901 103.31 105.699 103.029 105.554C102.747 105.405 102.419 105.33 102.044 105.33C101.673 105.33 101.345 105.405 101.06 105.554C100.774 105.699 100.551 105.901 100.389 106.161C100.231 106.417 100.152 106.715 100.152 107.056C100.152 107.401 100.233 107.706 100.395 107.97C100.557 108.234 100.781 108.441 101.066 108.59C101.352 108.739 101.678 108.814 102.044 108.814ZM109.061 116.516V114.522L113.721 110.207C114.117 109.824 114.45 109.478 114.718 109.172C114.991 108.865 115.197 108.564 115.338 108.27C115.479 107.972 115.549 107.65 115.549 107.305C115.549 106.922 115.462 106.591 115.287 106.314C115.112 106.033 114.874 105.818 114.571 105.669C114.268 105.515 113.925 105.439 113.542 105.439C113.141 105.439 112.792 105.52 112.494 105.682C112.195 105.844 111.965 106.076 111.803 106.378C111.641 106.681 111.56 107.041 111.56 107.459H108.933C108.933 106.602 109.127 105.858 109.515 105.228C109.903 104.597 110.446 104.109 111.145 103.764C111.844 103.419 112.649 103.246 113.561 103.246C114.499 103.246 115.315 103.412 116.009 103.745C116.708 104.073 117.251 104.529 117.639 105.113C118.027 105.697 118.221 106.366 118.221 107.12C118.221 107.614 118.123 108.102 117.927 108.584C117.735 109.065 117.392 109.6 116.898 110.188C116.403 110.772 115.707 111.473 114.808 112.291L112.896 114.164V114.253H118.393V116.516H109.061ZM122.016 116.682C121.594 116.682 121.232 116.533 120.93 116.235C120.631 115.932 120.482 115.57 120.482 115.148C120.482 114.731 120.631 114.373 120.93 114.074C121.232 113.776 121.594 113.627 122.016 113.627C122.425 113.627 122.783 113.776 123.09 114.074C123.397 114.373 123.55 114.731 123.55 115.148C123.55 115.429 123.478 115.687 123.333 115.922C123.192 116.152 123.007 116.337 122.777 116.478C122.547 116.614 122.293 116.682 122.016 116.682ZM130.177 116.695C129.223 116.695 128.373 116.531 127.627 116.203C126.885 115.871 126.299 115.415 125.869 114.835C125.443 114.251 125.223 113.578 125.211 112.815H127.998C128.015 113.135 128.119 113.416 128.311 113.659C128.507 113.898 128.767 114.083 129.091 114.215C129.414 114.347 129.779 114.413 130.184 114.413C130.605 114.413 130.978 114.339 131.302 114.189C131.626 114.04 131.88 113.834 132.063 113.569C132.246 113.305 132.338 113 132.338 112.655C132.338 112.306 132.24 111.997 132.044 111.728C131.852 111.456 131.575 111.243 131.213 111.089C130.855 110.936 130.429 110.859 129.934 110.859H128.713V108.826H129.934C130.352 108.826 130.721 108.754 131.04 108.609C131.364 108.464 131.615 108.264 131.794 108.008C131.973 107.748 132.063 107.446 132.063 107.101C132.063 106.773 131.984 106.485 131.826 106.238C131.673 105.986 131.456 105.79 131.174 105.65C130.897 105.509 130.574 105.439 130.203 105.439C129.828 105.439 129.485 105.507 129.174 105.643C128.863 105.775 128.613 105.965 128.426 106.212C128.238 106.459 128.138 106.749 128.125 107.081H125.473C125.485 106.327 125.701 105.662 126.118 105.087C126.536 104.512 127.098 104.062 127.806 103.738C128.517 103.41 129.321 103.246 130.216 103.246C131.119 103.246 131.909 103.41 132.587 103.738C133.265 104.067 133.791 104.51 134.166 105.068C134.545 105.622 134.733 106.244 134.728 106.934C134.733 107.667 134.505 108.279 134.044 108.769C133.588 109.259 132.994 109.57 132.261 109.702V109.804C133.224 109.928 133.957 110.263 134.46 110.808C134.967 111.349 135.218 112.027 135.214 112.841C135.218 113.586 135.003 114.249 134.569 114.829C134.138 115.408 133.544 115.864 132.785 116.197C132.027 116.529 131.157 116.695 130.177 116.695ZM144.369 114.062V113.371C144.369 112.847 144.48 112.366 144.702 111.927C144.927 111.483 145.253 111.13 145.68 110.866C146.11 110.597 146.634 110.463 147.252 110.463C147.878 110.463 148.405 110.595 148.831 110.859C149.261 111.123 149.585 111.477 149.802 111.92C150.024 112.359 150.135 112.843 150.135 113.371V114.062C150.135 114.586 150.024 115.069 149.802 115.513C149.581 115.951 149.255 116.303 148.824 116.567C148.394 116.836 147.87 116.97 147.252 116.97C146.626 116.97 146.099 116.836 145.673 116.567C145.247 116.303 144.923 115.951 144.702 115.513C144.48 115.069 144.369 114.586 144.369 114.062ZM146.229 113.371V114.062C146.229 114.364 146.302 114.65 146.447 114.918C146.596 115.187 146.864 115.321 147.252 115.321C147.64 115.321 147.904 115.189 148.045 114.924C148.189 114.66 148.262 114.373 148.262 114.062V113.371C148.262 113.06 148.194 112.77 148.057 112.502C147.921 112.233 147.653 112.099 147.252 112.099C146.868 112.099 146.602 112.233 146.453 112.502C146.304 112.77 146.229 113.06 146.229 113.371ZM137.651 106.57V105.88C137.651 105.351 137.764 104.868 137.99 104.429C138.216 103.986 138.542 103.632 138.968 103.368C139.398 103.103 139.918 102.971 140.528 102.971C141.158 102.971 141.687 103.103 142.113 103.368C142.539 103.632 142.863 103.986 143.084 104.429C143.306 104.868 143.417 105.351 143.417 105.88V106.57C143.417 107.098 143.304 107.582 143.078 108.021C142.856 108.46 142.53 108.812 142.1 109.076C141.674 109.336 141.15 109.466 140.528 109.466C139.905 109.466 139.379 109.334 138.949 109.069C138.523 108.801 138.199 108.449 137.977 108.015C137.76 107.576 137.651 107.094 137.651 106.57ZM139.524 105.88V106.57C139.524 106.881 139.596 107.169 139.741 107.433C139.89 107.697 140.153 107.829 140.528 107.829C140.92 107.829 141.186 107.697 141.327 107.433C141.471 107.169 141.544 106.881 141.544 106.57V105.88C141.544 105.569 141.476 105.279 141.339 105.01C141.203 104.742 140.932 104.608 140.528 104.608C140.148 104.608 139.886 104.744 139.741 105.017C139.596 105.29 139.524 105.577 139.524 105.88ZM138.495 116.516L147.495 103.425H149.17L140.17 116.516H138.495Z" fill="#0049C6"/>
<path d="M110.496 135.321V134.384H117.041V135.321H114.297V143.111H113.24V135.321H110.496ZM120.246 143.248C119.655 143.248 119.136 143.107 118.69 142.826C118.247 142.544 117.9 142.151 117.65 141.645C117.403 141.14 117.28 140.549 117.28 139.873C117.28 139.191 117.403 138.596 117.65 138.087C117.9 137.579 118.247 137.184 118.69 136.902C119.136 136.621 119.655 136.481 120.246 136.481C120.836 136.481 121.354 136.621 121.797 136.902C122.243 137.184 122.589 137.579 122.836 138.087C123.086 138.596 123.211 139.191 123.211 139.873C123.211 140.549 123.086 141.14 122.836 141.645C122.589 142.151 122.243 142.544 121.797 142.826C121.354 143.107 120.836 143.248 120.246 143.248ZM120.246 142.344C120.694 142.344 121.064 142.229 121.354 141.999C121.643 141.769 121.858 141.466 121.997 141.091C122.136 140.716 122.206 140.31 122.206 139.873C122.206 139.435 122.136 139.027 121.997 138.65C121.858 138.272 121.643 137.966 121.354 137.733C121.064 137.5 120.694 137.384 120.246 137.384C119.797 137.384 119.427 137.5 119.138 137.733C118.848 137.966 118.633 138.272 118.494 138.65C118.355 139.027 118.285 139.435 118.285 139.873C118.285 140.31 118.355 140.716 118.494 141.091C118.633 141.466 118.848 141.769 119.138 141.999C119.427 142.229 119.797 142.344 120.246 142.344ZM127.593 136.566V137.418H124.201V136.566H127.593ZM125.19 134.998H126.195V141.236C126.195 141.52 126.237 141.733 126.319 141.875C126.404 142.015 126.512 142.108 126.643 142.157C126.776 142.202 126.917 142.225 127.065 142.225C127.176 142.225 127.267 142.219 127.338 142.208C127.409 142.194 127.465 142.182 127.508 142.174L127.713 143.077C127.644 143.103 127.549 143.128 127.427 143.154C127.305 143.182 127.15 143.196 126.963 143.196C126.678 143.196 126.4 143.135 126.127 143.013C125.857 142.891 125.633 142.705 125.454 142.455C125.278 142.205 125.19 141.89 125.19 141.509V134.998ZM131.032 143.265C130.617 143.265 130.241 143.186 129.903 143.03C129.565 142.871 129.296 142.642 129.097 142.344C128.899 142.043 128.799 141.679 128.799 141.253C128.799 140.878 128.873 140.574 129.021 140.341C129.168 140.106 129.366 139.921 129.613 139.787C129.86 139.654 130.133 139.554 130.431 139.489C130.732 139.421 131.035 139.367 131.339 139.327C131.737 139.276 132.059 139.238 132.306 139.212C132.556 139.184 132.738 139.137 132.852 139.071C132.968 139.006 133.026 138.892 133.026 138.731V138.696C133.026 138.276 132.911 137.949 132.681 137.716C132.454 137.483 132.109 137.367 131.646 137.367C131.166 137.367 130.789 137.472 130.517 137.682C130.244 137.892 130.052 138.117 129.941 138.356L128.987 138.015C129.157 137.617 129.384 137.307 129.668 137.086C129.955 136.861 130.268 136.705 130.606 136.617C130.947 136.526 131.282 136.481 131.612 136.481C131.822 136.481 132.063 136.506 132.336 136.557C132.612 136.606 132.877 136.706 133.133 136.86C133.392 137.013 133.606 137.245 133.776 137.554C133.947 137.864 134.032 138.279 134.032 138.799V143.111H133.026V142.225H132.975C132.907 142.367 132.793 142.519 132.634 142.681C132.475 142.843 132.264 142.981 131.999 143.094C131.735 143.208 131.413 143.265 131.032 143.265ZM131.186 142.361C131.583 142.361 131.918 142.283 132.191 142.127C132.467 141.971 132.674 141.769 132.813 141.522C132.955 141.275 133.026 141.015 133.026 140.742V139.821C132.984 139.873 132.89 139.919 132.745 139.962C132.603 140.002 132.438 140.037 132.251 140.069C132.066 140.097 131.886 140.123 131.71 140.145C131.536 140.165 131.396 140.182 131.288 140.196C131.026 140.231 130.782 140.286 130.555 140.363C130.33 140.436 130.149 140.549 130.009 140.699C129.873 140.847 129.805 141.049 129.805 141.304C129.805 141.654 129.934 141.918 130.193 142.097C130.454 142.273 130.785 142.361 131.186 142.361ZM136.873 134.384V143.111H135.868V134.384H136.873Z" fill="#0049C6"/>
<defs>
<filter id="filter0_d_1_1866" x="0.222221" y="1.76389" width="250.556" height="255.556" filterUnits="userSpaceOnUse" color-interpolation-filters="sRGB">
<feFlood flood-opacity="0" result="BackgroundImageFix"/>
<feColorMatrix in="SourceAlpha" type="matrix" values="0 0 0 0 0 0 0 0 0 0 0 0 0 0 0 0 0 0 127 0" result="hardAlpha"/>
<feOffset dy="8.54167"/>
<feGaussianBlur stdDeviation="11.3889"/>
<feComposite in2="hardAlpha" operator="out"/>
<feColorMatrix type="matrix" values="0 0 0 0 0.423529 0 0 0 0 0.364706 0 0 0 0 0.827451 0 0 0 0.1 0"/>
<feBlend mode="normal" in2="BackgroundImageFix" result="effect1_dropShadow_1_1866"/>
<feBlend mode="normal" in="SourceGraphic" in2="effect1_dropShadow_1_1866" result="shape"/>
</filter>
<filter id="filter1_d_1_1866" x="16.1195" y="34.7359" width="241.289" height="238.925" filterUnits="userSpaceOnUse" color-interpolation-filters="sRGB">
<feFlood flood-opacity="0" result="BackgroundImageFix"/>
<feColorMatrix in="SourceAlpha" type="matrix" values="0 0 0 0 0 0 0 0 0 0 0 0 0 0 0 0 0 0 127 0" result="hardAlpha"/>
<feOffset dy="16.849"/>
<feGaussianBlur stdDeviation="23.4706"/>
<feColorMatrix type="matrix" values="0 0 0 0 0.0588235 0 0 0 0 0.0705882 0 0 0 0 0.247059 0 0 0 0.25 0"/>
<feBlend mode="normal" in2="BackgroundImageFix" result="effect1_dropShadow_1_1866"/>
<feBlend mode="normal" in="SourceGraphic" in2="effect1_dropShadow_1_1866" result="shape"/>
</filter>
<filter id="filter2_d_1_1866" x="77.0077" y="0.442122" width="184.81" height="186.597" filterUnits="userSpaceOnUse" color-interpolation-filters="sRGB">
<feFlood flood-opacity="0" result="BackgroundImageFix"/>
<feColorMatrix in="SourceAlpha" type="matrix" values="0 0 0 0 0 0 0 0 0 0 0 0 0 0 0 0 0 0 127 0" result="hardAlpha"/>
<feOffset dy="18.5339"/>
<feGaussianBlur stdDeviation="23.4706"/>
<feColorMatrix type="matrix" values="0 0 0 0 0.403922 0 0 0 0 0.494118 0 0 0 0 0.996078 0 0 0 0.37 0"/>
<feBlend mode="normal" in2="BackgroundImageFix" result="effect1_dropShadow_1_1866"/>
<feBlend mode="normal" in="SourceGraphic" in2="effect1_dropShadow_1_1866" result="shape"/>
</filter>
<filter id="filter3_d_1_1866" x="61.6775" y="67.0215" width="123.441" height="125.591" filterUnits="userSpaceOnUse" color-interpolation-filters="sRGB">
<feFlood flood-opacity="0" result="BackgroundImageFix"/>
<feColorMatrix in="SourceAlpha" type="matrix" values="0 0 0 0 0 0 0 0 0 0 0 0 0 0 0 0 0 0 127 0" result="hardAlpha"/>
<feOffset dy="8.8172"/>
<feGaussianBlur stdDeviation="8.8172"/>
<feComposite in2="hardAlpha" operator="out"/>
<feColorMatrix type="matrix" values="0 0 0 0 0.847059 0 0 0 0 0.854902 0 0 0 0 0.898039 0 0 0 0.8 0"/>
<feBlend mode="normal" in2="BackgroundImageFix" result="effect1_dropShadow_1_1866"/>
<feBlend mode="normal" in="SourceGraphic" in2="effect1_dropShadow_1_1866" result="shape"/>
</filter>
<linearGradient id="paint0_linear_1_1866" x1="250.874" y1="60.942" x2="46.6745" y2="9.68174" gradientUnits="userSpaceOnUse">
<stop stop-color="#9EC600"/>
<stop offset="1" stop-color="#CDF4FF"/>
</linearGradient>
<linearGradient id="paint1_linear_1_1866" x1="160.595" y1="167.364" x2="68.8825" y2="-8.42386" gradientUnits="userSpaceOnUse">
<stop stop-color="#4C73FF"/>
<stop offset="1" stop-color="#FFB7F5"/>
</linearGradient>
</defs>
</svg>
